<svg width="280" height="340" viewBox="0 0 280 340" xmlns="http://www.w3.org/2000/svg">
  <!-- Background circle -->
  <circle cx="140" cy="120" r="95" fill="#f0e6ff" opacity="0.3"/>

  <!-- Neck -->
  <rect x="120" y="180" width="40" height="50" fill="#ffd4b8" rx="8"/>

  <!-- Body/Shoulders -->
  <ellipse cx="140" cy="250" rx="80" ry="60" fill="#4a90e2"/>
  <path d="M 60 230 Q 60 200 80 190 L 100 240 Z" fill="#3a7bc8"/>
  <path d="M 220 230 Q 220 200 200 190 L 180 240 Z" fill="#3a7bc8"/>

  <!-- Hair back (long hair) -->
  <ellipse cx="140" cy="120" rx="75" ry="95" fill="#3d2817"/>
  <path d="M 65 120 Q 50 180 60 260 Q 65 300 70 330" stroke="#3d2817" stroke-width="25" fill="none" stroke-linecap="round"/>
  <path d="M 215 120 Q 230 180 220 260 Q 215 300 210 330" stroke="#3d2817" stroke-width="25" fill="none" stroke-linecap="round"/>
  <path d="M 85 140 Q 75 200 80 280" stroke="#2d1f12" stroke-width="18" fill="none" stroke-linecap="round" opacity="0.5"/>
  <path d="M 195 140 Q 205 200 200 280" stroke="#2d1f12" stroke-width="18" fill="none" stroke-linecap="round" opacity="0.5"/>

  <!-- Face -->
  <ellipse cx="140" cy="120" rx="60" ry="75" fill="#ffd4b8"/>

  <!-- Ears -->
  <ellipse cx="80" cy="120" rx="12" ry="18" fill="#ffcaa8"/>
  <ellipse cx="200" cy="120" rx="12" ry="18" fill="#ffcaa8"/>
  <ellipse cx="82" cy="122" rx="6" ry="10" fill="#ffb896"/>
  <ellipse cx="198" cy="122" rx="6" ry="10" fill="#ffb896"/>

  <!-- Hair front (bangs) -->
  <path d="M 80 75 Q 100 50 140 45 Q 180 50 200 75 Q 200 90 195 95 L 180 85 Q 160 70 140 70 Q 120 70 100 85 L 85 95 Q 80 90 80 75 Z" fill="#3d2817"/>
  <path d="M 90 70 Q 110 55 130 52" stroke="#2d1f12" stroke-width="3" fill="none" opacity="0.4"/>
  <path d="M 150 52 Q 170 55 190 70" stroke="#2d1f12" stroke-width="3" fill="none" opacity="0.4"/>

  <!-- Hair strands on sides -->
  <path d="M 85 95 Q 75 110 75 130" stroke="#3d2817" stroke-width="12" fill="none" stroke-linecap="round"/>
  <path d="M 195 95 Q 205 110 205 130" stroke="#3d2817" stroke-width="12" fill="none" stroke-linecap="round"/>

  <!-- Eyebrows -->
  <path d="M 110 100 Q 120 95 130 97" stroke="#2d1f12" stroke-width="3" fill="none" stroke-linecap="round"/>
  <path d="M 150 97 Q 160 95 170 100" stroke="#2d1f12" stroke-width="3" fill="none" stroke-linecap="round"/>

  <!-- Eyes -->
  <ellipse cx="120" cy="115" rx="12" ry="15" fill="white"/>
  <ellipse cx="160" cy="115" rx="12" ry="15" fill="white"/>

  <!-- Blue irises -->
  <circle cx="120" cy="117" r="8" fill="#4a90e2"/>
  <circle cx="160" cy="117" r="8" fill="#4a90e2"/>

  <!-- Pupils -->
  <circle cx="121" cy="116" r="4" fill="#1a2a3a"/>
  <circle cx="161" cy="116" r="4" fill="#1a2a3a"/>

  <!-- Eye highlights -->
  <circle cx="118" cy="114" r="2" fill="white" opacity="0.9"/>
  <circle cx="158" cy="114" r="2" fill="white" opacity="0.9"/>

  <!-- Upper eyelashes -->
  <path d="M 108 108 Q 112 106 116 107" stroke="#1a1a1a" stroke-width="1.5" fill="none" stroke-linecap="round"/>
  <path d="M 124 107 Q 128 106 132 108" stroke="#1a1a1a" stroke-width="1.5" fill="none" stroke-linecap="round"/>
  <path d="M 148 108 Q 152 106 156 107" stroke="#1a1a1a" stroke-width="1.5" fill="none" stroke-linecap="round"/>
  <path d="M 164 107 Q 168 106 172 108" stroke="#1a1a1a" stroke-width="1.5" fill="none" stroke-linecap="round"/>

  <!-- Nose -->
  <path d="M 140 125 Q 140 135 140 138" stroke="#ffb896" stroke-width="2" fill="none" stroke-linecap="round"/>
  <path d="M 136 138 Q 138 140 140 140 Q 142 140 144 138" stroke="#ffb896" stroke-width="1.5" fill="none"/>

  <!-- Smile (will be covered by mouth overlay in app) -->
  <path d="M 125 150 Q 140 158 155 150" stroke="#ff8a80" stroke-width="2.5" fill="none" stroke-linecap="round"/>

  <!-- Blush -->
  <ellipse cx="105" cy="135" rx="10" ry="6" fill="#ffb3ba" opacity="0.4"/>
  <ellipse cx="175" cy="135" rx="10" ry="6" fill="#ffb3ba" opacity="0.4"/>

  <!-- Necklace detail -->
  <circle cx="140" cy="215" r="6" fill="#ffd700" opacity="0.8"/>
  <ellipse cx="140" cy="215" rx="3" ry="3" fill="#ffed4e"/>
</svg>
